<svg version="1" xmlns="http://www.w3.org/2000/svg" width="468" height="468" viewBox="0 0 351.000000 351.000000"><path d="M0 175.5V351h351V0H0v175.5zm260.7-79.3l59.3 59.3-40.2 40.2-40.3 40.3-30.2-30.2-30.3-30.3-10 10-10 10 29 29 29 29-30.5 30.5-30.5 30.5L96.5 255 37 195.5 77.5 155l40.5-40.5 30.5 30.5 30.5 30.5 9.5-9.5c5.2-5.2 9.5-9.9 9.5-10.5 0-.5-12.8-13.8-28.6-29.6l-28.5-28.5 29.8-30.2C187.1 50.6 200.7 37 201 37c.3 0 27.2 26.7 59.7 59.2z"/><path d="M191.2 87.3L181 97.5l29 29 29 29-10 10-10 10 10.3 10.3 10.2 10.2 19.8-19.8c10.8-10.8 19.7-20.2 19.7-20.7 0-.6-17.4-18.4-38.8-39.8L201.5 77l-10.3 10.3zM97.7 175.8L78 195.5l39 39 39 39 10-10 10-10-28.5-28.5c-15.7-15.7-28.5-29-28.5-29.5 0-.6 4.3-5.3 9.5-10.5l9.5-9.5-9.7-9.7c-5.4-5.4-10-9.8-10.3-9.8-.3 0-9.4 8.9-20.3 19.8z"/></svg>