<svg xmlns="http://www.w3.org/2000/svg" viewBox="0 0 357 350.2"><title>icon</title><path d="M315.1,107.9l-36-36L255.5,48.3h0L226.6,19.5,207.1,0l-36,36L130.4,76.7,156,102.2l5.6,5.6,42.2,42.2-25.2,25.2,40.5,40.5,36,36,36-36,40.4-40.4L357,149.8Zm-34.7,67.5-25.4,25.4L229.3,175l25.3-25.3L232.8,128h0l-3.2-3.2h0l-16.9-16.8L181.5,76.7l25.7-25.8L230,73.8h0l34.1,34.1L306,149.8Z" fill="#86d126"/><path d="M41.9,242.3l36,36,23.7,23.7h0l28.9,28.8,19.5,19.5,36-36,40.7-40.7L201,247.9l-5.6-5.6-42.2-42.2,25.2-25.2-40.5-40.5-36-36-36,36L25.6,174.8,0,200.4Zm34.7-67.5L102,149.4l25.7,25.7-25.3,25.3,21.8,21.8h0l3.2,3.2h0l16.9,16.8,31.2,31.2-25.7,25.8L127,276.4h0L92.9,242.3,51,200.4Z" fill="#fff"/></svg>