<svg xmlns="http://www.w3.org/2000/svg" viewBox="0 0 1177.2 294.6"><title>logo-full</title><path d="M192.4,237.3c10.8,0,41-2,50.6-6.2a80.2,80.2,0,0,0,42.4-42.2,76.8,76.8,0,0,0,6.2-30.8V26.3h57.3V158.2a133.1,133.1,0,0,1-10.7,53.1,135.9,135.9,0,0,1-72.6,72.6c-16.6,7.2-54.3,10.7-73.1,10.7Z" fill="#fff"/><path d="M565.7,294.6l2.1-105.5V26.4H735.5V83.7H625.5v48.2h78.1l-.3,56.1h-78v49l110.3.4v57.3Z" fill="#fff"/><path d="M563.4,294.6H496.3L418.2,164.5V294.6H360.9V26.3h102a90.4,90.4,0,0,1,35.9,7.2,92.7,92.7,0,0,1,49.4,49.4,93.4,93.4,0,0,1,3.7,61.4A95.7,95.7,0,0,1,542,167a88.4,88.4,0,0,1-15.3,19,96.7,96.7,0,0,1-19.9,14.4ZM462.9,153.9A34.8,34.8,0,0,0,498,118.8a34.8,34.8,0,0,0-35.2-35.2H418.2v70.3Z" fill="#fff"/><polygon points="404.7 153.9 394.7 153.9 418.2 191.5 418.2 175.6 418.2 165.3 422.6 153.9 404.7 153.9" fill="#231f20" opacity="0.1"/><polygon points="411.1 153.9 429.4 183.1 429.4 153.9 411.1 153.9" fill="#fff"/><polygon points="1042.4 155.3 907.7 26.3 907.7 274.4 917.9 294.6 965.1 294.6 965.1 160.6 1042.4 234.8 1119.4 161 1119.4 294.6 1176.7 294.6 1176.7 26.3 1042.4 155.3" fill="#fff"/><polygon points="907.7 134.7 907.7 274.4 917.9 294.6 965 294.6 965 248.8 907.7 134.7" opacity="0.1"/><path d="M703.1,294.6,838.5,26.4,973.2,294.6H908.8l-70.3-141-71,141Z" fill="#fff"/><path d="M168.6,58.6l-19-19L137,27h0L121.7,11.8,111.4,1.5l-19,19L70.8,42.1,84.3,55.6l3,3,22.3,22.3L96.3,94.2l21.4,21.4,19,19,19-19,21.4-21.4,13.5-13.5ZM150.2,94.3l-13.4,13.4L123.2,94.1l13.4-13.4L125,69.2h0l-1.7-1.7h0l-8.9-8.9L97.8,42.1l13.6-13.6,12.1,12.1h0l18.1,18.1,22.2,22.2Z" fill="#86d126"/><path d="M24,129.7l19,19,12.5,12.5h0l15.3,15.2,10.3,10.3,19-19,21.6-21.6-13.5-13.5-3-3L82.9,107.4,96.2,94,74.8,72.6l-19-19-19,19L15.3,94,1.8,107.5ZM42.3,94,55.8,80.6,69.4,94.2,56,107.5l11.5,11.5h0l1.7,1.7h0l8.9,8.9,16.5,16.5L81.1,159.8,69,147.8h0L51,129.7,28.8,107.5Z" fill="#fff"/></svg>